#!OML:ASF F:\VICON\USERDATA\INSTALL\rory3\rory3.ASF
:FULLY-SPECIFIED
:DEGREES
562
root 0.759639 17.7754 -34.3309 -148.374 -18.4853 -192.165
lowerback -12.7526 -4.07236 1.8371
upperback -10.3744 -7.35754 -3.79352
thorax -4.64018 -4.70665 -5.55619
lowerneck -17.2151 -0.0129887 -7.99415
upperneck 19.5048 1.63087 0.638733
head 8.90159 0.0762354 1.71467
rclavicle 3.00553e-014 -8.64713e-015
rhumerus -366.924 -36.7198 343.023
rradius 17.6011
rwrist 8.57397
rhand 4.61151 367.807
rfingers 7.12502
rthumb 29.9994 -19.7807
lclavicle 3.00553e-014 -8.64713e-015
lhumerus -17.1066 -12.2314 47.6161
lradius 13.6827
lwrist -39.822
lhand 18.8894 25.2708
lfingers 7.12502
lthumb 43.4991 49.338
rfemur 141.601 -189.244 -168.391
rtibia 42.3032
rfoot -2.37231 -28.9953
rtoes 20.0292
lfemur -33.665 -4.63184 -13.2628
ltibia 35.7792
lfoot -27.251 13.7453
ltoes 48.1314
563
root 0.743248 17.6922 -34.3565 -148.41 -17.3492 -192.578
lowerback -12.9636 -3.90357 0.492913
upperback -9.70412 -6.83483 -3.71726
thorax -3.56177 -4.27206 -4.76778
lowerneck -17.8282 -0.185188 -7.9249
upperneck 20.0816 1.5015 0.30848
head 9.22499 -0.0448348 1.58094
rclavicle -4.54537e-014 -5.43676e-014
rhumerus -365.367 -39.1588 341.301
rradius 16.623
rwrist 12.8267
rhand 5.28232 368.504
rfingers 7.12502
rthumb 30.6392 -18.9652
lclavicle -4.54537e-014 -5.43676e-014
lhumerus -15.4734 -10.2867 50.8176
lradius 13.2907
lwrist -40.4746
lhand 19.2481 24.9489
lfingers 7.12502
lthumb 43.834 48.8934
rfemur 141.244 -189.668 -169.16
rtibia 43.1232
rfoot -3.16984 -28.7707
rtoes 20.5148
lfemur -36.2076 -4.64505 -15.5417
ltibia 36.1558
lfoot -26.6897 11.9294
ltoes 47.7775
564
root 0.673727 17.6444 -34.3655 -149.285 -18.1311 -191.166
lowerback -12.0956 -3.5862 2.51508
upperback -9.57716 -6.45036 -3.29467
thorax -4.01906 -4.11483 -5.3373
lowerneck -17.4209 -0.234466 -7.97836
upperneck 20.7035 1.38689 0.176207
head 9.37461 -0.163234 1.52851
rclavicle 2.8861e-014 -9.69075e-015
rhumerus -363.999 -44.9076 339.968
rradius 15.0727
rwrist 21.1232
rhand 6.46669 369.857
rfingers 7.12502
rthumb 31.7679 -17.3953
lclavicle 2.8861e-014 -9.69075e-015
lhumerus -14.747 -8.85953 54.1057
lradius 13.0021
lwrist -41.5824
lhand 18.8056 23.9725
lfingers 7.12502
lthumb 43.4208 48.0681
rfemur 141.895 -188.637 -167.109
rtibia 43.501
rfoot -3.16143 -27.8804
rtoes 18.7658
lfemur -38.649 -4.01828 -15.7143
ltibia 36.6977
lfoot -24.253 11.7948
ltoes 46.6865
565
root 0.641389 17.5873 -34.4023 -150.409 -18.5455 -189.565
lowerback -9.84461 -3.13428 3.98176
upperback -10.6022 -5.9836 -2.7638
thorax -6.40868 -4.04322 -5.29295
lowerneck -15.4738 0.0316488 -8.07527
upperneck 21.8014 1.44338 0.052066
head 9.39603 -0.270087 1.49643
rclavicle -5.17244e-014 -9.14409e-015
rhumerus -365.44 -37.334 340.286
rradius 16.1063
rwrist 17.8384
rhand 7.34424 368.792
rfingers 7.12502
rthumb 32.6033 -18.2915
lclavicle -5.17244e-014 -9.14409e-015
lhumerus -15.9314 -8.73105 57.6413
lradius 12.8824
lwrist -42.6798
lhand 18.8119 23.5844
lfingers 7.12502
lthumb 43.4267 47.6778
rfemur 142.764 -189.005 -165.137
rtibia 43.4667
rfoot -3.47259 -28.117
rtoes 17.5087
lfemur -40.8632 -3.32648 -15.6666
ltibia 37.4729
lfoot -22.0644 11.0273
ltoes 45.844
566
root 0.60366 17.5404 -34.4388 -151.46 -18.8134 -187.997
lowerback -10.4724 -2.9577 5.09024
upperback -9.14259 -5.4739 -2.07133
thorax -4.43564 -3.59732 -5.31093
lowerneck -16.251 -0.254828 -8.28603
upperneck 21.3661 1.25366 0.0296062
head 9.39841 -0.331864 1.50455
rclavicle 1.36913e-014 1.51076e-014
rhumerus -363.905 -37.1094 338.783
rradius 16.2088
rwrist 17.4981
rhand 7.90401 367.437
rfingers 7.12502
rthumb 33.1358 -19.5347
lclavicle 1.36913e-014 1.51076e-014
lhumerus -13.1635 -7.78253 60.8518
lradius 12.5826
lwrist -42.5518
lhand 19.4075 24.0077
lfingers 7.12502
lthumb 43.9828 47.897
rfemur 143.709 -189 -163.183
rtibia 43.1666
rfoot -3.24461 -28.1066
rtoes 15.7917
lfemur -43.2597 -2.94287 -15.5421
ltibia 38.2418
lfoot -19.0207 12.6412
ltoes 41.8945
567
root 0.503277 17.5148 -34.4311 -153.089 -20.6337 -185.137
lowerback -9.24517 -2.6738 9.20261
upperback -8.89685 -5.12297 -1.28179
thorax -5.1583 -3.58292 -6.67295
lowerneck -16.0213 -0.496756 -8.92143
upperneck 21.6567 0.977112 0.231627
head 9.4692 -0.514219 1.64305
rclavicle 4.6118e-014 2.78299e-015
rhumerus -363.367 -36.1271 338.125
rradius 16.0804
rwrist 17.7205
rhand 8.27729 366.306
rfingers 7.12502
rthumb 33.4906 -20.5893
lclavicle 4.6118e-014 2.78299e-015
lhumerus -12.1564 -7.04478 64.069
lradius 12.4181
lwrist -43.6242
lhand 19.7788 24.1032
lfingers 7.12502
lthumb 44.329 47.8623
rfemur 145.227 -186.242 -159.205
rtibia 42.656
rfoot -2.66924 -26.3634
rtoes 13.5277
lfemur -45.5811 -2.39508 -14.1909
ltibia 38.9656
lfoot -16.6716 11.8111
ltoes 40.9525
